<?xml version="1.0" standalone="no"?>
<!DOCTYPE svg PUBLIC "-//W3C//DTD SVG 20010904//EN"
 "http://www.w3.org/TR/2001/REC-SVG-20010904/DTD/svg10.dtd">
<svg version="1.0" xmlns="http://www.w3.org/2000/svg"
 width="700.000000pt" height="700.000000pt" viewBox="0 0 700.000000 700.000000"
 preserveAspectRatio="xMidYMid meet">
<metadata>
Created by potrace 1.14, written by Peter Selinger 2001-2017
</metadata>
<g transform="translate(0.000000,700.000000) scale(0.100000,-0.100000)"
fill="#000000" stroke="none">
<path d="M1720 6078 c0 -4 30 -54 68 -112 37 -57 83 -131 103 -163 21 -32 114
-177 207 -323 94 -146 202 -314 240 -375 38 -60 244 -382 457 -715 212 -333
387 -609 388 -615 1 -6 -225 -9 -622 -10 l-623 0 0 -128 c1 -70 1 -136 1 -147
1 -20 8 -20 636 -20 l634 0 -130 -202 c-72 -112 -158 -245 -191 -295 l-61 -93
-443 0 c-388 0 -444 -2 -445 -15 -3 -73 -1 -264 4 -271 3 -5 155 -9 346 -9
188 0 341 -3 341 -7 0 -4 -37 -65 -83 -135 -289 -446 -496 -767 -520 -808 -7
-11 -14 -22 -17 -25 -3 -3 -34 -50 -68 -105 -35 -55 -94 -147 -132 -205 -193
-295 -249 -384 -245 -389 2 -5 359 -6 387 -2 5 1 638 966 778 1185 19 31 96
148 170 262 74 114 138 212 142 218 5 8 139 11 463 11 l456 0 207 -322 c114
-177 223 -348 242 -378 19 -31 98 -153 175 -272 77 -119 149 -231 160 -249 11
-19 79 -124 150 -235 72 -111 133 -206 137 -212 4 -7 74 -11 207 -12 l200 0
-26 45 c-15 25 -47 77 -72 115 -25 39 -50 78 -56 88 -14 24 -171 270 -221 347
-85 130 -677 1065 -680 1075 -3 7 109 10 341 10 338 0 345 0 346 20 0 11 2 77
2 148 l2 127 -445 0 -446 0 -18 33 c-10 17 -38 61 -61 97 -93 143 -277 434
-282 447 -4 11 106 13 621 13 589 0 626 1 627 18 5 131 1 265 -8 270 -6 4
-288 7 -627 7 l-615 0 17 28 c9 15 60 93 112 173 52 80 100 153 105 161 6 9
39 62 76 117 36 56 126 195 200 309 73 114 238 368 366 565 127 196 302 467
389 602 87 135 175 269 196 299 20 30 35 57 33 61 -2 3 -88 6 -190 5 l-187 0
-190 -290 c-104 -159 -226 -346 -270 -415 -45 -69 -116 -177 -157 -240 -42
-63 -78 -119 -81 -125 -3 -5 -57 -89 -120 -185 -272 -413 -400 -609 -521 -798
-39 -62 -75 -115 -79 -117 -9 -5 -16 5 -200 295 -79 124 -162 254 -185 290
-23 36 -162 254 -310 485 -291 456 -469 735 -550 860 -28 44 -73 115 -100 158
-27 42 -51 78 -54 78 -26 6 -401 4 -401 -3z m1922 -2996 l127 -197 -256 -3
c-141 -1 -258 0 -261 2 -5 6 248 396 257 396 3 0 63 -89 133 -198z"/>
</g>
</svg>
